<?xml version="1.0" standalone="no"?>
<!DOCTYPE svg PUBLIC "-//W3C//DTD SVG 20010904//EN"
 "http://www.w3.org/TR/2001/REC-SVG-20010904/DTD/svg10.dtd">
<svg version="1.0" xmlns="http://www.w3.org/2000/svg"
 width="2000.000000pt" height="2000.000000pt" viewBox="0 0 2000.000000 2000.000000"
 preserveAspectRatio="xMidYMid meet">
<metadata>
Created by potrace 1.11, written by Peter Selinger 2001-2013
</metadata>
<g transform="translate(0.000000,2000.000000) scale(0.100000,-0.100000)"
fill="#000000" stroke="none">
<path d="M0 10000 l0 -10000 10000 0 10000 0 0 10000 0 10000 -10000 0 -10000
0 0 -10000z m6250 4560 l0 -1840 4595 0 4595 0 0 -4540 0 -4540 -5455 0 -5455
0 0 6380 0 6380 860 0 860 0 0 -1840z"/>
<path d="M6255 10988 c-3 -7 -4 -1274 -3 -2816 l3 -2802 3733 -3 3732 -2 0
2818 0 2817 -3730 0 c-2975 0 -3732 -3 -3735 -12z"/>
</g>
</svg>
